<svg width="39" height="40" viewBox="0 0 39 40" fill="none" xmlns="http://www.w3.org/2000/svg">
<path fill-rule="evenodd" clip-rule="evenodd" d="M26 15C26 16.7681 25.3152 18.4638 24.0962 19.714C22.8772 20.9643 21.2239 21.6666 19.5 21.6666C17.7761 21.6666 16.1228 20.9643 14.9038 19.714C13.6848 18.4638 13 16.7681 13 15C13 13.2319 13.6848 11.5362 14.9038 10.2859C16.1228 9.03569 17.7761 8.33331 19.5 8.33331C21.2239 8.33331 22.8772 9.03569 24.0962 10.2859C25.3152 11.5362 26 13.2319 26 15ZM22.75 15C22.75 15.884 22.4076 16.7319 21.7981 17.357C21.1886 17.9821 20.362 18.3333 19.5 18.3333C18.638 18.3333 17.8114 17.9821 17.2019 17.357C16.5924 16.7319 16.25 15.884 16.25 15C16.25 14.1159 16.5924 13.2681 17.2019 12.643C17.8114 12.0178 18.638 11.6666 19.5 11.6666C20.362 11.6666 21.1886 12.0178 21.7981 12.643C22.4076 13.2681 22.75 14.1159 22.75 15Z" fill="#545454"/>
<path fill-rule="evenodd" clip-rule="evenodd" d="M19.5 1.66666C9.62812 1.66666 1.625 9.87499 1.625 20C1.625 30.125 9.62812 38.3333 19.5 38.3333C29.3719 38.3333 37.375 30.125 37.375 20C37.375 9.87499 29.3719 1.66666 19.5 1.66666ZM4.875 20C4.875 23.4833 6.03362 26.69 7.9755 29.2367C9.33925 27.3998 11.0986 25.9112 13.1161 24.8872C15.1336 23.8631 17.3546 23.3313 19.6056 23.3333C21.8275 23.3312 24.0206 23.8492 26.0178 24.848C28.0149 25.8467 29.7634 27.2999 31.1301 29.0967C32.5381 27.2027 33.4861 24.992 33.8957 22.6476C34.3053 20.3033 34.1647 17.8925 33.4856 15.615C32.8064 13.3374 31.6082 11.2584 29.9902 9.55005C28.3721 7.8417 26.3807 6.55309 24.1806 5.79084C21.9806 5.02859 19.6352 4.81461 17.3385 5.16661C15.0418 5.51861 12.8599 6.42648 10.9732 7.81508C9.08659 9.20368 7.54944 11.0331 6.489 13.152C5.42855 15.2709 4.87529 17.6183 4.875 20ZM19.5 35C16.1427 35.0052 12.8867 33.8206 10.283 31.6467C11.331 30.1079 12.7259 28.8515 14.3491 27.9845C15.9722 27.1174 17.7755 26.6653 19.6056 26.6667C21.4129 26.6652 23.1944 27.1059 24.8023 27.9524C26.4101 28.7988 27.7978 30.0264 28.8502 31.5333C26.2264 33.7778 22.9167 35.0049 19.5 35Z" fill="#545454"/>
</svg>
