<svg width="43" height="44" viewBox="0 0 43 44" fill="none" xmlns="http://www.w3.org/2000/svg">
<path d="M39.5564 15.3028C39.3105 15.0419 39.0122 14.8386 38.6821 14.707V8.51949C38.6821 8.17086 38.5467 7.83651 38.3058 7.59C38.0649 7.34348 37.7382 7.20499 37.3975 7.20499C37.0568 7.20499 36.73 7.34348 36.4891 7.59C36.2482 7.83651 36.1128 8.17086 36.1128 8.51949V14.3917H35.7366C35.1347 12.3166 33.8939 10.4961 32.199 9.20109C30.504 7.90611 28.4456 7.20598 26.3303 7.20499H16.89C14.7748 7.20628 12.7166 7.90651 11.0217 9.20146C9.32681 10.4964 8.08593 12.3168 7.48379 14.3917H6.9875V8.51949C6.9875 8.17086 6.85216 7.83651 6.61124 7.59C6.37033 7.34348 6.04358 7.20499 5.70288 7.20499C5.36217 7.20499 5.03542 7.34348 4.79451 7.59C4.55359 7.83651 4.41825 8.17086 4.41825 8.51949V14.7253C4.10495 14.8617 3.81981 15.0576 3.57796 15.3028C3.00971 15.8914 2.68996 16.6847 2.6875 17.512V26.488C2.6875 27.3156 3.00878 28.1092 3.58065 28.6944C4.15253 29.2796 4.92816 29.6083 5.73692 29.6083H7.44975C8.05189 31.6832 9.29277 33.5036 10.9876 34.7985C12.6825 36.0935 14.7408 36.7937 16.856 36.795H26.1422C28.2574 36.7937 30.3157 36.0935 32.0106 34.7985C33.7054 33.5036 34.9463 31.6832 35.5485 29.6083H37.2595C38.0683 29.6083 38.8439 29.2796 39.4158 28.6944C39.9876 28.1092 40.3089 27.3156 40.3089 26.488V17.512C40.3448 16.7053 40.0742 15.9133 39.5564 15.3028ZM7.1595 26.9793H5.805C5.74167 26.9801 5.6788 26.9681 5.62006 26.9439C5.56132 26.9196 5.50786 26.8837 5.46279 26.8382C5.37671 26.7426 5.3282 26.6179 5.32663 26.488V17.512C5.32423 17.4499 5.33382 17.3879 5.35486 17.3295C5.3759 17.2712 5.40797 17.2177 5.44924 17.1721C5.49051 17.1264 5.54017 17.0896 5.59537 17.0636C5.65057 17.0376 5.71024 17.023 5.77096 17.0207H7.1595C7.15091 17.0968 7.15091 17.1737 7.1595 17.2498V26.7502C7.15091 26.8263 7.15091 26.9032 7.1595 26.9793ZM15.5714 21.263C15.3672 21.4706 15.1074 21.6116 14.8249 21.6683C14.5424 21.7249 14.2498 21.6947 13.9841 21.5813C13.7184 21.4679 13.4915 21.2765 13.332 21.0313C13.1726 20.786 13.0877 20.4979 13.0881 20.2033C13.0881 19.8055 13.2422 19.4242 13.5145 19.1418L15.2274 17.3892C15.5004 17.1106 15.8702 16.9542 16.2558 16.9542C16.6413 16.9542 17.0112 17.1106 17.2842 17.3892L18.997 19.1418C19.201 19.3499 19.34 19.6153 19.3964 19.9043C19.4529 20.1933 19.4242 20.4929 19.3141 20.7652C19.2039 21.0376 19.0173 21.2703 18.7778 21.434C18.5383 21.5976 18.2566 21.6849 17.9686 21.6847C17.5855 21.6877 17.2167 21.5362 16.942 21.263L16.2038 20.5113L15.5714 21.263ZM26.1422 28.732C24.9332 29.9546 23.3019 30.6402 21.6021 30.6402C19.9023 30.6402 18.2711 29.9546 17.062 28.732C16.8243 28.4882 16.6765 28.1677 16.6436 27.8249C16.6107 27.4822 16.6949 27.1383 16.8817 26.8519C17.0685 26.5654 17.3466 26.354 17.6685 26.2536C17.9904 26.1532 18.3364 26.1699 18.6477 26.301C18.8237 26.3768 18.9833 26.4878 19.1171 26.6273C19.7882 27.2773 20.6772 27.6395 21.6012 27.6395C22.5253 27.6395 23.4143 27.2773 24.0854 26.6273C24.2195 26.4874 24.3795 26.3763 24.5561 26.3004C24.7327 26.2245 24.9223 26.1854 25.1138 26.1854C25.3053 26.1854 25.4949 26.2245 25.6715 26.3004C25.8481 26.3763 26.0081 26.4874 26.1422 26.6273C26.4144 26.9067 26.5673 27.2851 26.5673 27.6797C26.5673 28.0742 26.4144 28.4526 26.1422 28.732ZM29.5679 21.263C29.2948 21.5415 28.925 21.6979 28.5395 21.6979C28.1539 21.6979 27.7841 21.5415 27.511 21.263L26.7765 20.5113L26.0562 21.263C25.7801 21.5352 25.4112 21.6864 25.0278 21.6847C24.6441 21.6884 24.2744 21.5368 23.9994 21.263C23.7262 20.9808 23.5729 20.5996 23.5729 20.2024C23.5729 19.8052 23.7262 19.424 23.9994 19.1418L25.714 17.3892C25.987 17.1112 26.3564 16.9551 26.7415 16.9551C27.1266 16.9551 27.4961 17.1112 27.769 17.3892L29.4819 19.1418C29.7742 19.4049 29.9528 19.7758 29.9787 20.1733C30.0045 20.5708 29.8755 20.9626 29.6198 21.263H29.5679ZM37.8257 26.5228C37.8236 26.653 37.7744 26.7777 37.6877 26.873C37.6426 26.9184 37.5891 26.9543 37.5304 26.9785C37.4717 27.0028 37.4088 27.0149 37.3455 27.0142H35.9928C36.0013 26.938 36.0013 26.8611 35.9928 26.785V17.1783C36.0012 17.1028 36.0012 17.0265 35.9928 16.951H37.3634C37.424 16.9506 37.4841 16.963 37.5398 16.9873C37.5956 17.0115 37.6459 17.0472 37.6877 17.0922C37.7755 17.1875 37.8239 17.3122 37.8257 17.4405V26.5228Z" fill="#545454"/>
</svg>
