<svg width="26" height="27" viewBox="0 0 26 27" fill="none" xmlns="http://www.w3.org/2000/svg">
<path d="M10.8333 15.75L22.75 3.375M10.8333 15.75L14.625 23.625C14.6725 23.7327 14.7488 23.824 14.8448 23.888C14.9408 23.952 15.0525 23.986 15.1666 23.986C15.2807 23.986 15.3924 23.952 15.4884 23.888C15.5844 23.824 15.6608 23.7327 15.7083 23.625L22.75 3.375M10.8333 15.75L3.24995 11.8125C3.14623 11.7631 3.05834 11.6839 2.99672 11.5842C2.9351 11.4845 2.90234 11.3685 2.90234 11.25C2.90234 11.1315 2.9351 11.0155 2.99672 10.9158C3.05834 10.8161 3.14623 10.7369 3.24995 10.6875L22.75 3.375" stroke="black" stroke-width="2" stroke-linecap="round" stroke-linejoin="round"/>
</svg>
