<svg width="26" height="27" viewBox="0 0 26 27" fill="none" xmlns="http://www.w3.org/2000/svg">
<path d="M10.8333 15.75L22.75 3.375M10.8333 15.75L14.625 23.625C14.6725 23.7327 14.7489 23.824 14.8449 23.888C14.9409 23.952 15.0526 23.986 15.1667 23.986C15.2808 23.986 15.3925 23.952 15.4885 23.888C15.5845 23.824 15.6608 23.7327 15.7083 23.625L22.75 3.375M10.8333 15.75L3.25002 11.8125C3.1463 11.7631 3.0584 11.6839 2.99678 11.5842C2.93516 11.4845 2.9024 11.3685 2.9024 11.25C2.9024 11.1315 2.93516 11.0155 2.99678 10.9158C3.0584 10.8161 3.1463 10.7369 3.25002 10.6875L22.75 3.375" stroke="black" stroke-width="2" stroke-linecap="round" stroke-linejoin="round"/>
</svg>
